<svg xmlns="http://www.w3.org/2000/svg" width="1920" height="1080" viewBox="0 0 1920 1080">
    <defs>
      <linearGradient id="bg" x1="0" y1="0" x2="1" y2="1">
        <stop offset="0%" stop-color="#0b0f24"/>
        <stop offset="100%" stop-color="#131a3a"/>
      </linearGradient>
      <radialGradient id="vignette" cx="50%" cy="45%" r="65%">
        <stop offset="0%" stop-color="#00000000"/>
        <stop offset="100%" stop-color="#000000aa"/>
      </radialGradient>
      <filter id="glow" x="-50%" y="-50%" width="200%" height="200%">
        <feGaussianBlur stdDeviation="6" result="b"/>
        <feMerge>
          <feMergeNode in="b"/>
          <feMergeNode in="SourceGraphic"/>
        </feMerge>
      </filter>
      <filter id="softGlow" x="-50%" y="-50%" width="200%" height="200%">
        <feGaussianBlur stdDeviation="3" result="b"/>
        <feMerge>
          <feMergeNode in="b"/>
          <feMergeNode in="SourceGraphic"/>
        </feMerge>
      </filter>
    </defs>
    <rect width="1920" height="1080" fill="url(#bg)"/>
<circle cx="1227.7" cy="27.0" r="0.93" fill="#ffffff" opacity="0.30" filter="url(#softGlow)"/><circle cx="1414.0" cy="730.8" r="1.67" fill="#ffffff" opacity="0.24" filter="url(#softGlow)"/><circle cx="810.1" cy="32.2" r="0.86" fill="#ffffff" opacity="0.43" filter="url(#softGlow)"/><circle cx="50.9" cy="214.7" r="1.38" fill="#ffffff" opacity="0.45" filter="url(#softGlow)"/><circle cx="423.2" cy="636.4" r="1.57" fill="#ffffff" opacity="0.20" filter="url(#softGlow)"/><circle cx="1547.2" cy="754.0" r="1.01" fill="#ffffff" opacity="0.27" filter="url(#softGlow)"/><circle cx="1837.8" cy="363.5" r="0.71" fill="#ffffff" opacity="0.24" filter="url(#softGlow)"/><circle cx="1627.2" cy="652.0" r="1.57" fill="#ffffff" opacity="0.53" filter="url(#softGlow)"/><circle cx="1029.6" cy="1051.0" r="1.05" fill="#ffffff" opacity="0.45" filter="url(#softGlow)"/><circle cx="1592.5" cy="668.0" r="1.63" fill="#ffffff" opacity="0.46" filter="url(#softGlow)"/><circle cx="1352.8" cy="49.5" r="0.87" fill="#ffffff" opacity="0.33" filter="url(#softGlow)"/><circle cx="153.2" cy="251.4" r="0.72" fill="#ffffff" opacity="0.33" filter="url(#softGlow)"/><circle cx="1220.5" cy="394.0" r="1.04" fill="#ffffff" opacity="0.29" filter="url(#softGlow)"/><circle cx="512.6" cy="1011.6" r="1.38" fill="#ffffff" opacity="0.47" filter="url(#softGlow)"/><circle cx="328.6" cy="787.5" r="0.80" fill="#ffffff" opacity="0.37" filter="url(#softGlow)"/><circle cx="1899.9" cy="691.2" r="1.27" fill="#ffffff" opacity="0.51" filter="url(#softGlow)"/><circle cx="1618.3" cy="838.1" r="0.87" fill="#ffffff" opacity="0.21" filter="url(#softGlow)"/><circle cx="605.7" cy="289.2" r="0.85" fill="#ffffff" opacity="0.62" filter="url(#softGlow)"/><circle cx="1682.6" cy="339.9" r="1.39" fill="#ffffff" opacity="0.38" filter="url(#softGlow)"/><circle cx="1755.9" cy="495.6" r="0.92" fill="#ffffff" opacity="0.31" filter="url(#softGlow)"/><circle cx="1077.8" cy="283.8" r="1.30" fill="#ffffff" opacity="0.60" filter="url(#softGlow)"/><circle cx="766.8" cy="236.9" r="1.80" fill="#ffffff" opacity="0.43" filter="url(#softGlow)"/><circle cx="174.5" cy="50.9" r="0.73" fill="#ffffff" opacity="0.48" filter="url(#softGlow)"/><circle cx="1520.8" cy="455.9" r="0.68" fill="#ffffff" opacity="0.37" filter="url(#softGlow)"/><circle cx="1912.6" cy="571.4" r="1.77" fill="#ffffff" opacity="0.59" filter="url(#softGlow)"/><circle cx="22.0" cy="778.4" r="1.42" fill="#ffffff" opacity="0.44" filter="url(#softGlow)"/><circle cx="512.3" cy="692.2" r="0.73" fill="#ffffff" opacity="0.40" filter="url(#softGlow)"/><circle cx="871.1" cy="1030.1" r="1.65" fill="#ffffff" opacity="0.32" filter="url(#softGlow)"/><circle cx="961.1" cy="192.9" r="1.70" fill="#ffffff" opacity="0.59" filter="url(#softGlow)"/><circle cx="573.0" cy="690.1" r="1.33" fill="#ffffff" opacity="0.27" filter="url(#softGlow)"/><circle cx="1464.0" cy="582.5" r="1.53" fill="#ffffff" opacity="0.44" filter="url(#softGlow)"/><circle cx="1.1" cy="350.1" r="0.62" fill="#ffffff" opacity="0.62" filter="url(#softGlow)"/><circle cx="1687.1" cy="898.2" r="0.97" fill="#ffffff" opacity="0.23" filter="url(#softGlow)"/><circle cx="1685.8" cy="1022.7" r="0.70" fill="#ffffff" opacity="0.42" filter="url(#softGlow)"/><circle cx="132.9" cy="821.5" r="1.52" fill="#ffffff" opacity="0.26" filter="url(#softGlow)"/><circle cx="912.5" cy="593.8" r="0.92" fill="#ffffff" opacity="0.59" filter="url(#softGlow)"/><circle cx="812.4" cy="228.7" r="1.25" fill="#ffffff" opacity="0.53" filter="url(#softGlow)"/><circle cx="386.2" cy="336.7" r="1.79" fill="#ffffff" opacity="0.49" filter="url(#softGlow)"/><circle cx="841.2" cy="559.0" r="0.75" fill="#ffffff" opacity="0.30" filter="url(#softGlow)"/><circle cx="649.1" cy="635.4" r="0.88" fill="#ffffff" opacity="0.30" filter="url(#softGlow)"/><circle cx="136.3" cy="681.6" r="0.87" fill="#ffffff" opacity="0.61" filter="url(#softGlow)"/><circle cx="1650.5" cy="76.5" r="0.89" fill="#ffffff" opacity="0.50" filter="url(#softGlow)"/><circle cx="411.3" cy="142.9" r="1.72" fill="#ffffff" opacity="0.46" filter="url(#softGlow)"/><circle cx="907.5" cy="847.4" r="1.57" fill="#ffffff" opacity="0.29" filter="url(#softGlow)"/><circle cx="186.1" cy="465.5" r="1.11" fill="#ffffff" opacity="0.41" filter="url(#softGlow)"/><circle cx="1399.8" cy="727.2" r="1.78" fill="#ffffff" opacity="0.24" filter="url(#softGlow)"/><circle cx="773.0" cy="366.4" r="1.63" fill="#ffffff" opacity="0.31" filter="url(#softGlow)"/><circle cx="365.2" cy="484.5" r="1.11" fill="#ffffff" opacity="0.33" filter="url(#softGlow)"/><circle cx="479.6" cy="997.1" r="1.13" fill="#ffffff" opacity="0.59" filter="url(#softGlow)"/><circle cx="1056.6" cy="54.6" r="1.80" fill="#ffffff" opacity="0.58" filter="url(#softGlow)"/><circle cx="1860.5" cy="1000.5" r="1.62" fill="#ffffff" opacity="0.27" filter="url(#softGlow)"/><circle cx="932.4" cy="230.8" r="1.08" fill="#ffffff" opacity="0.23" filter="url(#softGlow)"/><circle cx="727.6" cy="1064.1" r="0.92" fill="#ffffff" opacity="0.55" filter="url(#softGlow)"/><circle cx="873.6" cy="456.8" r="1.75" fill="#ffffff" opacity="0.65" filter="url(#softGlow)"/><circle cx="1067.1" cy="775.9" r="0.79" fill="#ffffff" opacity="0.33" filter="url(#softGlow)"/><circle cx="1859.9" cy="625.5" r="1.25" fill="#ffffff" opacity="0.54" filter="url(#softGlow)"/><circle cx="109.8" cy="630.9" r="1.20" fill="#ffffff" opacity="0.58" filter="url(#softGlow)"/><circle cx="302.3" cy="1037.6" r="0.70" fill="#ffffff" opacity="0.28" filter="url(#softGlow)"/><circle cx="1142.5" cy="729.2" r="0.88" fill="#ffffff" opacity="0.25" filter="url(#softGlow)"/><circle cx="1709.4" cy="265.9" r="1.31" fill="#ffffff" opacity="0.48" filter="url(#softGlow)"/><circle cx="804.9" cy="630.4" r="1.23" fill="#ffffff" opacity="0.62" filter="url(#softGlow)"/><circle cx="392.2" cy="773.5" r="0.89" fill="#ffffff" opacity="0.38" filter="url(#softGlow)"/><circle cx="1289.6" cy="324.0" r="0.98" fill="#ffffff" opacity="0.54" filter="url(#softGlow)"/><circle cx="139.3" cy="494.9" r="1.80" fill="#ffffff" opacity="0.65" filter="url(#softGlow)"/><circle cx="140.7" cy="230.2" r="0.92" fill="#ffffff" opacity="0.62" filter="url(#softGlow)"/><circle cx="1691.3" cy="949.6" r="1.04" fill="#ffffff" opacity="0.27" filter="url(#softGlow)"/><circle cx="1600.8" cy="759.8" r="1.33" fill="#ffffff" opacity="0.64" filter="url(#softGlow)"/><circle cx="1255.6" cy="8.4" r="1.58" fill="#ffffff" opacity="0.33" filter="url(#softGlow)"/><circle cx="1273.7" cy="1014.0" r="0.76" fill="#ffffff" opacity="0.25" filter="url(#softGlow)"/><circle cx="205.5" cy="597.5" r="0.93" fill="#ffffff" opacity="0.47" filter="url(#softGlow)"/><circle cx="1377.8" cy="219.9" r="1.36" fill="#ffffff" opacity="0.32" filter="url(#softGlow)"/><circle cx="938.0" cy="977.8" r="1.62" fill="#ffffff" opacity="0.24" filter="url(#softGlow)"/><circle cx="813.3" cy="298.8" r="0.60" fill="#ffffff" opacity="0.55" filter="url(#softGlow)"/><circle cx="1223.3" cy="282.9" r="1.49" fill="#ffffff" opacity="0.45" filter="url(#softGlow)"/><circle cx="821.2" cy="10.4" r="0.69" fill="#ffffff" opacity="0.60" filter="url(#softGlow)"/><circle cx="1735.5" cy="589.2" r="1.60" fill="#ffffff" opacity="0.46" filter="url(#softGlow)"/><circle cx="284.3" cy="137.6" r="0.97" fill="#ffffff" opacity="0.60" filter="url(#softGlow)"/><circle cx="1528.6" cy="929.6" r="1.68" fill="#ffffff" opacity="0.29" filter="url(#softGlow)"/><circle cx="479.1" cy="111.0" r="1.54" fill="#ffffff" opacity="0.60" filter="url(#softGlow)"/><circle cx="780.2" cy="670.3" r="0.79" fill="#ffffff" opacity="0.62" filter="url(#softGlow)"/><circle cx="1660.0" cy="1054.3" r="1.57" fill="#ffffff" opacity="0.60" filter="url(#softGlow)"/><circle cx="47.6" cy="795.5" r="1.00" fill="#ffffff" opacity="0.62" filter="url(#softGlow)"/><circle cx="1540.3" cy="933.2" r="1.57" fill="#ffffff" opacity="0.32" filter="url(#softGlow)"/><circle cx="1511.8" cy="116.7" r="1.65" fill="#ffffff" opacity="0.59" filter="url(#softGlow)"/><circle cx="427.1" cy="881.9" r="1.15" fill="#ffffff" opacity="0.34" filter="url(#softGlow)"/><circle cx="1527.1" cy="245.8" r="0.63" fill="#ffffff" opacity="0.29" filter="url(#softGlow)"/><circle cx="630.3" cy="933.5" r="1.76" fill="#ffffff" opacity="0.33" filter="url(#softGlow)"/><circle cx="1231.6" cy="431.7" r="1.78" fill="#ffffff" opacity="0.44" filter="url(#softGlow)"/><circle cx="1803.3" cy="124.6" r="1.76" fill="#ffffff" opacity="0.28" filter="url(#softGlow)"/><circle cx="1848.1" cy="286.7" r="0.73" fill="#ffffff" opacity="0.40" filter="url(#softGlow)"/><radialGradient id="halo" cx="960.0" cy="540.0" r="401.76" gradientUnits="userSpaceOnUse">      <stop offset="0%" stop-color="#5b62f7" stop-opacity="0.35"/>      <stop offset="100%" stop-color="#5b62f7" stop-opacity="0"/>    </radialGradient><circle cx="960.0" cy="540.0" r="401.76" fill="url(#halo)"/>
<rect x="43.2" y="43.2" width="1833.6" height="993.6" rx="12.96" ry="12.96" fill="none" stroke="#f98c45" stroke-opacity="0.35" stroke-width="3" filter="url(#glow)"/>
<line x1="852.0" y1="216.0" x2="852.0" y2="864.0" stroke="#5b62f7" stroke-width="12.96" stroke-linecap="round" filter="url(#glow)" /><line x1="1068.0" y1="216.0" x2="1068.0" y2="864.0" stroke="#5b62f7" stroke-width="12.96" stroke-linecap="round" filter="url(#glow)" /><line x1="636.0" y1="432.0" x2="1284.0" y2="432.0" stroke="#5b62f7" stroke-width="12.96" stroke-linecap="round" filter="url(#glow)" /><line x1="636.0" y1="648.0" x2="1284.0" y2="648.0" stroke="#5b62f7" stroke-width="12.96" stroke-linecap="round" filter="url(#glow)" /><rect x="636.0" y="216.0" width="648.0" height="648.0" fill="none" stroke="#f98c45" stroke-width="7.776" stroke-opacity="0.8" filter="url(#softGlow)"/>
<rect width="1920" height="1080" fill="url(#vignette)" pointer-events="none"/>
</svg>